<svg width="525" height="519" viewBox="0 0 525 519" fill="none" xmlns="http://www.w3.org/2000/svg">
<path d="M428.849 187.042C428.849 286.557 352.638 366.502 259.5 366.502C166.363 366.502 90.1512 286.557 90.1512 187.042C90.1512 87.527 166.363 7.58279 259.5 7.58279C352.638 7.58279 428.849 87.527 428.849 187.042Z" stroke="white" stroke-width="15.1656"/>
<path fill-rule="evenodd" clip-rule="evenodd" d="M186.764 166.821H406.443C405.164 156.864 402.99 147.205 400.009 137.937C400.642 140.079 401.045 141.545 401.045 141.545H282.65L280.448 158.396H244.334L246.536 141.545H117.878C113.547 156.184 111.214 171.748 111.214 187.885C111.214 223.375 122.498 256.094 141.501 282.295L160.924 166.821H186.764ZM189.114 202.208H407.168C400.289 281.578 336.802 343.753 259.5 343.753C256.101 343.753 252.729 343.633 249.388 343.396L270.482 210.212L234.225 210.211L214.965 336.601C198.938 331.303 184.084 323.222 170.917 312.896L171.848 313.064L189.114 202.208ZM389.71 113.243C364.546 64.8441 315.67 32.0161 259.5 32.0161C204.769 32.0161 156.963 63.1836 131.271 109.554L388.07 110.372C388.07 110.372 388.736 111.501 389.71 113.243Z" fill="white"/>
<path fill-rule="evenodd" clip-rule="evenodd" d="M65.7175 414.526H0V426.321H26.961V502.149H38.7565V426.321H65.7175V414.526Z" fill="white"/>
<path fill-rule="evenodd" clip-rule="evenodd" d="M140.09 431.377L128.907 431.376L151.545 466.592L129.463 502.149H139.186C142.053 502.149 144.723 500.692 146.273 498.28L159.095 478.335L171.917 498.28C173.467 500.691 176.137 502.149 179.004 502.149H188.727L166.645 466.592L189.283 431.377L178.1 431.377C175.187 431.377 172.48 432.882 170.943 435.357L159.095 454.435L147.247 435.357C145.71 432.882 143.003 431.377 140.09 431.377Z" fill="white"/>
<path fill-rule="evenodd" clip-rule="evenodd" d="M87.6236 431.376C78.3172 431.376 70.7729 438.921 70.7729 448.227V485.299C70.7729 494.036 77.4232 501.22 85.9383 502.066V502.149H124.695V490.354H123.924H90.9935C87.271 490.354 84.2532 487.336 84.2532 483.614V473.503H124.695V448.227C124.695 438.921 117.151 431.376 107.844 431.376H87.6236ZM84.2532 453.282C84.2532 448.629 88.0254 444.857 92.6786 444.857H104.474C109.127 444.857 112.899 448.629 112.899 453.282V461.708H84.2532V453.282Z" fill="white"/>
<path fill-rule="evenodd" clip-rule="evenodd" d="M193.782 433.062H200.522C203.314 433.062 205.578 435.325 205.578 438.117V461.708H235.909V438.117C235.909 435.325 238.172 433.062 240.964 433.062H247.705V502.149H240.964C238.172 502.149 235.909 499.886 235.909 497.094V473.503H205.578V497.094C205.578 499.886 203.314 502.149 200.522 502.149H193.782V433.062Z" fill="white"/>
<path fill-rule="evenodd" clip-rule="evenodd" d="M272.981 431.376C263.674 431.376 256.13 438.921 256.13 448.227V485.299C256.13 494.605 263.674 502.149 272.981 502.149H294.886C304.193 502.149 311.737 494.605 311.737 485.299V448.227C311.737 438.921 304.193 431.376 294.886 431.376H272.981ZM278.036 443.172C272.452 443.172 267.925 447.699 267.925 453.282V480.243C267.925 485.827 272.452 490.354 278.036 490.354H289.831C295.415 490.354 299.942 485.827 299.942 480.243V453.282C299.942 447.699 295.415 443.172 289.831 443.172H278.036Z" fill="white"/>
<path fill-rule="evenodd" clip-rule="evenodd" d="M333.643 414.526H321.847V426.321V502.149H328.587C331.379 502.149 333.643 499.886 333.643 497.094V426.321H375.769C378.561 426.321 380.824 424.058 380.824 421.266V414.526H333.643Z" fill="white"/>
<path fill-rule="evenodd" clip-rule="evenodd" d="M385.88 431.376H392.62C395.412 431.376 397.675 433.64 397.675 436.432V479.991L428.006 432.219L428.006 431.377H439.802V502.149H433.062C430.27 502.149 428.006 499.886 428.006 497.094V451.724L397.675 499.495V502.149H395.99L395.99 502.149L395.99 502.149H385.88V431.376Z" fill="white"/>
<path fill-rule="evenodd" clip-rule="evenodd" d="M490.354 431.376H490.931L490.65 432.198L511.014 488.669H524.055V490.354V500.464V519H519C515.277 519 512.26 515.982 512.26 512.26V500.464H456.652V512.26C456.652 515.982 453.635 519 449.912 519H444.857V500.464V490.354V488.669H458.475L478.84 432.198L478.558 431.376H479.136H490.354ZM484.745 449.421L471.288 488.669H498.201L484.745 449.421Z" fill="white"/>
</svg>
