<svg width="311" height="308" viewBox="0 0 311 308" fill="none" xmlns="http://www.w3.org/2000/svg">
<path d="M254.5 111C254.5 170.057 209.272 217.5 154 217.5C98.7277 217.5 53.5 170.057 53.5 111C53.5 51.9428 98.7277 4.5 154 4.5C209.272 4.5 254.5 51.9428 254.5 111Z" stroke="#4B535B" stroke-width="9"/>
<path fill-rule="evenodd" clip-rule="evenodd" d="M115.5 99H241.203C240.444 93.0916 239.154 87.3603 237.385 81.8608C237.761 83.1307 238 84 238 84H167.739L166.432 94H145L146.307 84H69.9543C67.3844 92.6874 66 101.924 66 111.5C66 132.561 72.6965 151.979 83.9736 167.528L95.4999 98.9998H115.5L115.5 99ZM112.229 120H241.633C237.551 167.102 199.875 204 154 204C151.983 204 149.982 203.929 147.999 203.788L160.517 124.75L139 124.749L127.571 199.756C118.059 196.612 109.244 191.816 101.43 185.688L101.983 185.787L112.229 120ZM231.272 67.2022C216.338 38.4809 187.333 19 154 19C121.52 19 93.1498 37.4963 77.9026 65.0149L230.3 65.5C230.3 65.5 230.694 66.1695 231.272 67.2022Z" fill="#4B535B"/>
<path fill-rule="evenodd" clip-rule="evenodd" d="M39 246H0V253H16V298H23V253H39V246Z" fill="#4B535B"/>
<path fill-rule="evenodd" clip-rule="evenodd" d="M83.1362 256L76.4995 256L89.9344 276.898L76.8296 298H82.5999C84.3012 298 85.8857 297.135 86.8057 295.704L94.4148 283.868L102.024 295.704C102.944 297.135 104.528 298 106.23 298H112L98.8952 276.898L112.33 256L105.693 256C103.964 256 102.358 256.893 101.446 258.362L94.4148 269.684L87.3837 258.362C86.4715 256.893 84.8652 256 83.1362 256Z" fill="#4B535B"/>
<path fill-rule="evenodd" clip-rule="evenodd" d="M52 256C46.4772 256 42 260.477 42 266V288C42 293.185 45.9467 297.449 51 297.951V298H52H64H74V291H73.5422H54C51.7909 291 50 289.209 50 287V281H74V266C74 260.477 69.5228 256 64 256H52ZM50 269C50 266.239 52.2386 264 55 264H62C64.7614 264 67 266.239 67 269V274H50V269Z" fill="#4B535B"/>
<path fill-rule="evenodd" clip-rule="evenodd" d="M115 257H119C120.657 257 122 258.343 122 260V274H140V260C140 258.343 141.343 257 143 257H147V298H143C141.343 298 140 296.657 140 295V281H122V295C122 296.657 120.657 298 119 298H115V257Z" fill="#4B535B"/>
<path fill-rule="evenodd" clip-rule="evenodd" d="M162 256C156.477 256 152 260.477 152 266V288C152 293.523 156.477 298 162 298H175C180.523 298 185 293.523 185 288V266C185 260.477 180.523 256 175 256H162ZM165 263C161.686 263 159 265.686 159 269V285C159 288.314 161.686 291 165 291H172C175.314 291 178 288.314 178 285V269C178 265.686 175.314 263 172 263H165Z" fill="#4B535B"/>
<path fill-rule="evenodd" clip-rule="evenodd" d="M198 246H191V253V298H195C196.657 298 198 296.657 198 295V253H223C224.657 253 226 251.657 226 250V246H198Z" fill="#4B535B"/>
<path fill-rule="evenodd" clip-rule="evenodd" d="M229 256H233C234.657 256 236 257.343 236 259V284.85L254 256.5V256H261V298H257C255.343 298 254 296.657 254 295V268.075L236 296.425V298H235H229V256Z" fill="#4B535B"/>
<path fill-rule="evenodd" clip-rule="evenodd" d="M291 256H291.343L291.176 256.487L303.261 290H311V291V297V308H308C305.791 308 304 306.209 304 304V297H271V304C271 306.209 269.209 308 267 308H264V297V291V290H272.082L284.167 256.487L284 256H284.343H291ZM287.671 266.708L279.686 290H295.657L287.671 266.708Z" fill="#4B535B"/>
</svg>
