<svg width="546" height="541" viewBox="0 0 546 541" fill="none" xmlns="http://www.w3.org/2000/svg">
<path d="M446.085 195.391C446.085 298.87 366.838 381.998 269.991 381.998C173.145 381.998 93.898 298.87 93.898 195.391C93.898 91.9127 173.145 8.78469 269.991 8.78469C366.838 8.78469 446.085 91.9127 446.085 195.391Z" stroke="black" stroke-width="15.7696"/>
<path fill-rule="evenodd" clip-rule="evenodd" d="M202.533 174.365H422.786C421.456 164.016 419.197 153.977 416.1 144.344C416.756 146.564 417.174 148.083 417.174 148.083H294.064L291.774 165.604H254.222L256.512 148.083H122.729C118.226 163.304 115.8 179.488 115.8 196.267C115.8 233.171 127.533 267.194 147.293 294.439L167.489 174.365V174.365H202.533L202.533 174.365ZM196.802 211.161H423.54C416.387 293.692 350.372 358.344 269.991 358.344C266.457 358.344 262.951 358.219 259.476 357.973L281.411 219.483L243.709 219.483L223.683 350.907C207.017 345.398 191.571 336.994 177.879 326.257L178.849 326.432L196.802 211.161ZM405.381 118.643C379.213 68.322 328.394 34.1914 269.991 34.1914C213.08 34.1914 163.371 66.6001 136.655 114.817L403.682 115.667C403.682 115.667 404.371 116.837 405.381 118.643Z" fill="black"/>
<path fill-rule="evenodd" clip-rule="evenodd" d="M68.4915 431.935H0.156738V444.2H28.1913V523.048H40.4565V444.2H68.4915V431.935Z" fill="black"/>
<path fill-rule="evenodd" clip-rule="evenodd" d="M185.35 449.457L196.978 449.457L173.438 486.074L196.4 523.048L186.289 523.048C183.308 523.048 180.532 521.532 178.92 519.025L165.588 498.286L152.255 519.025C150.643 521.532 147.867 523.048 144.886 523.048H134.775L157.737 486.074L134.197 449.457L145.825 449.457C148.855 449.457 151.669 451.022 153.268 453.596L165.588 473.433L177.907 453.596C179.506 451.022 182.32 449.457 185.35 449.457Z" fill="black"/>
<path fill-rule="evenodd" clip-rule="evenodd" d="M91.2698 449.457C81.5928 449.457 73.748 457.301 73.748 466.978V505.526C73.748 514.612 80.6632 522.082 89.5174 522.961V523.048H91.2293C91.2428 523.048 91.2563 523.048 91.2698 523.048H112.296C112.309 523.048 112.323 523.048 112.336 523.048H129.817V510.783H129.015H94.7739C90.9031 510.783 87.7652 507.645 87.7652 503.774V493.261H129.818V466.978C129.818 457.301 121.973 449.457 112.296 449.457H91.2698ZM87.7652 472.235C87.7652 467.396 91.6876 463.474 96.5261 463.474H108.791C113.63 463.474 117.552 467.396 117.552 472.235V480.996H87.7652V472.235Z" fill="black"/>
<path fill-rule="evenodd" clip-rule="evenodd" d="M201.657 451.209H208.665C211.569 451.209 213.922 453.562 213.922 456.465V480.996H245.461V456.465C245.461 453.562 247.814 451.209 250.717 451.209H257.726V523.048H250.717C247.814 523.048 245.461 520.694 245.461 517.791V493.261H213.922V517.791C213.922 520.694 211.569 523.048 208.665 523.048H201.657V451.209Z" fill="black"/>
<path fill-rule="evenodd" clip-rule="evenodd" d="M284.009 449.457C274.332 449.457 266.487 457.301 266.487 466.978V505.526C266.487 515.203 274.332 523.048 284.009 523.048H306.787C316.464 523.048 324.309 515.203 324.309 505.526V466.978C324.309 457.301 316.464 449.457 306.787 449.457H284.009ZM289.265 461.722C283.459 461.722 278.752 466.429 278.752 472.235V500.27C278.752 506.076 283.459 510.783 289.265 510.783H301.53C307.337 510.783 312.043 506.076 312.043 500.27V472.235C312.043 466.429 307.337 461.722 301.53 461.722H289.265Z" fill="black"/>
<path fill-rule="evenodd" clip-rule="evenodd" d="M347.087 431.935H334.822V444.2V523.048H341.83C344.734 523.048 347.087 520.694 347.087 517.791V444.2H390.891C393.794 444.2 396.148 441.847 396.148 438.944V431.935H347.087Z" fill="black"/>
<path fill-rule="evenodd" clip-rule="evenodd" d="M457.474 523.048H450.465C447.562 523.048 445.209 520.694 445.209 517.791V470.614L413.67 520.288V523.048H401.404V449.457H408.413C411.316 449.457 413.67 451.81 413.67 454.713V500.007L445.209 450.333V449.457H457.474V523.048Z" fill="black"/>
<path fill-rule="evenodd" clip-rule="evenodd" d="M510.039 449.457H510.64L510.347 450.31L531.522 509.031H545.083V510.783V521.296V540.57H539.826C535.955 540.57 532.817 537.432 532.817 533.561V521.296H474.996V533.561C474.996 537.432 471.858 540.57 467.987 540.57H462.73V521.296V510.783V509.031H476.891L498.067 450.31L497.774 449.457H498.375H510.039ZM504.207 468.219L490.215 509.031H518.199L504.207 468.219Z" fill="black"/>
</svg>
