<svg width="1000" height="222" viewBox="0 0 1000 222" fill="none" xmlns="http://www.w3.org/2000/svg">
<path d="M205.5 111C205.5 170.057 160.272 217.5 105 217.5C49.7277 217.5 4.5 170.057 4.5 111C4.5 51.9428 49.7277 4.5 105 4.5C160.272 4.5 205.5 51.9428 205.5 111Z" stroke="white" stroke-width="9"/>
<path fill-rule="evenodd" clip-rule="evenodd" d="M66.4999 99H192.203C191.444 93.0916 190.154 87.3603 188.385 81.8608C188.761 83.1307 189 84 189 84H118.739L117.432 94H96L97.3068 84H20.9543C18.3844 92.6874 17 101.924 17 111.5C17 132.561 23.6965 151.979 34.9736 167.528L46.4999 98.9998H66.4999L66.4999 99ZM63.2292 120H192.633C188.551 167.102 150.875 204 105 204C102.983 204 100.982 203.929 98.999 203.788L111.517 124.75L90.0004 124.749L78.5707 199.756C69.0593 196.612 60.2443 191.816 52.4301 185.688L52.983 185.787L63.2292 120ZM182.272 67.2022C167.338 38.4809 138.333 19 105 19C72.52 19 44.1498 37.4963 28.9026 65.0149L181.3 65.5C181.3 65.5 181.694 66.1695 182.272 67.2022Z" fill="white"/>
<path fill-rule="evenodd" clip-rule="evenodd" d="M315.129 66H217V83.6129H257.258V196.839H274.871V83.6129H315.129V66Z" fill="white"/>
<path fill-rule="evenodd" clip-rule="evenodd" d="M482.938 91.1615L499.637 91.1611L465.833 143.744L498.806 196.839H484.288C480.007 196.839 476.02 194.662 473.705 191.061L454.56 161.28L435.415 191.061C433.1 194.662 429.113 196.839 424.832 196.839L410.313 196.839L443.287 143.744L409.483 91.1612L426.181 91.1616C430.532 91.1617 434.573 93.4093 436.869 97.105L454.56 125.592L472.251 97.1049C474.546 93.4092 478.588 91.1616 482.938 91.1615Z" fill="white"/>
<path fill-rule="evenodd" clip-rule="evenodd" d="M347.839 91.1611C333.943 91.1611 322.677 102.426 322.677 116.322V171.677C322.677 184.724 332.608 195.452 345.323 196.714V196.838H347.773C347.795 196.839 347.817 196.839 347.839 196.839H378.032C378.054 196.839 378.076 196.839 378.098 196.838H403.194V179.226H402.042H352.871C347.313 179.226 342.807 174.72 342.807 169.161V154.064H403.194V116.322C403.194 102.426 391.928 91.1611 378.032 91.1611H347.839ZM342.807 123.871C342.807 116.923 348.439 111.29 355.387 111.29H373C379.948 111.29 385.581 116.923 385.581 123.871V136.451H342.807V123.871Z" fill="white"/>
<path fill-rule="evenodd" clip-rule="evenodd" d="M586.871 93.6772H576.806C572.637 93.6772 569.258 97.0568 569.258 101.226V136.451H523.968V101.226C523.968 97.0568 520.588 93.6773 516.419 93.6773H506.355V196.839H516.419C520.588 196.839 523.968 193.459 523.968 189.29V154.064H569.258V189.29C569.258 193.459 572.637 196.839 576.806 196.839H586.871V93.6772Z" fill="white"/>
<path fill-rule="evenodd" clip-rule="evenodd" d="M624.613 91.1611C610.717 91.1611 599.452 102.426 599.452 116.322V171.677C599.452 185.573 610.717 196.839 624.613 196.839H657.323C671.219 196.839 682.484 185.573 682.484 171.677V116.322C682.484 102.426 671.219 91.1611 657.323 91.1611H624.613ZM632.161 108.774C623.824 108.774 617.064 115.533 617.064 123.871V164.129C617.064 172.467 623.824 179.226 632.161 179.226H649.774C658.112 179.226 664.871 172.467 664.871 164.129V123.871C664.871 115.533 658.112 108.774 649.774 108.774H632.161Z" fill="white"/>
<path fill-rule="evenodd" clip-rule="evenodd" d="M715.194 66H697.581V83.6129V196.839H707.645C711.814 196.839 715.194 193.459 715.194 189.29V83.6129H778.097C782.266 83.6129 785.645 80.2334 785.645 76.0645V66H715.194Z" fill="white"/>
<path fill-rule="evenodd" clip-rule="evenodd" d="M873.71 196.839H863.645C859.476 196.839 856.097 193.459 856.097 189.29V121.543L810.806 192.876V196.839H793.194V91.1612H803.258C807.427 91.1612 810.806 94.5407 810.806 98.7096V163.752L856.097 92.4192V91.1611H873.71V196.839Z" fill="white"/>
<path fill-rule="evenodd" clip-rule="evenodd" d="M949.194 91.1611H950.056L949.636 92.3871L980.044 176.71H999.516V179.226V194.322V222H991.968C986.41 222 981.903 217.494 981.903 211.935V194.322H898.871V211.935C898.871 217.494 894.365 222 888.807 222H881.258V194.322V179.226V176.71H901.593L932.001 92.3871L931.581 91.1611H932.443H949.194ZM940.819 118.105L920.726 176.71H960.912L940.819 118.105Z" fill="white"/>
</svg>
