<svg width="1018" height="222" viewBox="0 0 1018 222" fill="none" xmlns="http://www.w3.org/2000/svg">
<path d="M105 4.5C160.272 4.5 205.5 51.9428 205.5 111C205.5 170.057 160.272 217.5 105 217.5C49.7277 217.5 4.5 170.057 4.5 111C4.5 51.9428 49.7277 4.5 105 4.5Z" stroke="#035094" stroke-width="9"/>
<path d="M192.633 120C188.55 167.102 150.875 204 105 204C102.983 204 100.982 203.927 98.999 203.786L111.518 124.75L90 124.749L78.5703 199.754C69.06 196.61 60.2461 191.815 52.4326 185.688L52.9834 185.788L63.2295 120H192.633ZM188.716 82.9102C190.315 88.0881 191.491 93.4665 192.202 99H46.5L34.9736 167.525C23.6973 151.977 17 132.561 17 111.5C17 101.924 18.3842 92.6874 20.9541 84H97.3066L96 94H117.432L118.738 84H189C189 84 188.768 83.1567 188.402 81.918L188.716 82.9102ZM105 19C138.33 19 167.33 38.4772 182.266 67.1934C181.694 66.1708 181.304 65.5063 181.3 65.5L28.9043 65.0146C44.1516 37.4965 72.5203 19 105 19Z" fill="#035094"/>
<path d="M315.129 83.6133H274.871V196.839H257.258V83.6133H217V66H315.129V83.6133Z" fill="#035094"/>
<path d="M426.182 91.1613C430.532 91.1615 434.573 93.4093 436.868 97.1046L454.56 125.591L472.251 97.1046C474.546 93.4091 478.588 91.1614 482.939 91.1613H499.637L465.832 143.743L498.807 196.839H484.287C480.007 196.839 476.02 194.662 473.705 191.062L454.559 161.279L435.414 191.061C433.099 194.661 429.113 196.839 424.832 196.839H410.314L443.286 143.744L409.483 91.1613H426.182Z" fill="#035094"/>
<path d="M378.032 91.1613C391.928 91.1613 403.194 102.426 403.194 116.322V154.065H342.806V169.161C342.806 174.72 347.313 179.226 352.871 179.226H403.194V196.839H345.323V196.714C332.608 195.452 322.678 184.725 322.677 171.678V116.322C322.678 102.426 333.943 91.1613 347.839 91.1613H378.032ZM355.387 111.29C348.439 111.29 342.806 116.923 342.806 123.871V136.451H385.581V123.871C385.581 116.923 379.948 111.29 373 111.29H355.387Z" fill="#035094"/>
<path d="M516.419 93.6774C520.588 93.6774 523.968 97.0573 523.968 101.226V136.452H569.258V101.225C569.258 97.0567 572.637 93.6775 576.806 93.6774H586.87V196.839H576.806C572.637 196.838 569.258 193.459 569.258 189.291V154.064H523.968V189.291C523.968 193.459 520.588 196.839 516.419 196.839H506.355V93.6774H516.419Z" fill="#035094"/>
<path d="M657.323 91.1613C671.219 91.1613 682.484 102.426 682.484 116.322V171.678C682.484 185.574 671.219 196.839 657.323 196.839H624.613C610.717 196.839 599.452 185.574 599.452 171.678V116.322C599.452 102.426 610.717 91.1613 624.613 91.1613H657.323ZM632.162 108.775C623.824 108.775 617.065 115.533 617.065 123.871V164.129C617.065 172.467 623.824 179.226 632.162 179.226H649.774C658.112 179.226 664.871 172.467 664.871 164.129V123.871C664.871 115.533 658.112 108.775 649.774 108.775H632.162Z" fill="#035094"/>
<path d="M785.645 66V76.0645C785.645 80.2332 782.266 83.613 778.097 83.6133H715.194V189.29C715.194 193.459 711.814 196.839 707.645 196.839H697.581V66H785.645Z" fill="#035094"/>
<path d="M803.258 91.1613C807.427 91.1613 810.807 94.5412 810.807 98.7101V163.751L856.097 92.4191V91.1613H873.71V196.839H863.646C859.477 196.839 856.097 193.459 856.097 189.29V121.543L810.807 192.875V196.839H793.194V91.1613H803.258Z" fill="#035094"/>
<path d="M949.635 92.3868L980.044 176.71H999.516V222H991.968C986.41 222 981.904 217.494 981.904 211.936V194.322H898.872V211.936C898.871 217.494 894.365 222 888.807 222H881.258V176.71H901.593L932 92.3868L931.581 91.1613H950.056L949.635 92.3868ZM920.726 176.71H960.912L940.818 118.105L920.726 176.71Z" fill="#035094"/>
<path d="M1017.15 74.7393C1017.15 77.8805 1016.37 80.8184 1014.81 83.5527C1013.23 86.3034 1011.06 88.4681 1008.31 90.0469C1005.58 91.6094 1002.64 92.3906 999.5 92.3906C996.31 92.3906 993.331 91.5687 990.564 89.9248C987.814 88.2809 985.674 86.1081 984.144 83.4062C982.614 80.7044 981.849 77.8154 981.849 74.7393C981.849 71.5817 982.638 68.6439 984.217 65.9258C985.796 63.1914 987.952 61.0348 990.687 59.4561C993.421 57.8773 996.359 57.0879 999.5 57.0879C1002.66 57.0879 1005.61 57.8773 1008.36 59.4561C1011.1 61.0348 1013.25 63.1914 1014.81 65.9258C1016.37 68.6439 1017.15 71.5817 1017.15 74.7393ZM1014.42 74.7393C1014.42 72.07 1013.75 69.596 1012.42 67.3174C1011.08 65.0387 1009.26 63.2321 1006.95 61.8975C1004.64 60.5628 1002.15 59.8955 999.5 59.8955C996.945 59.8955 994.528 60.5303 992.249 61.7998C989.97 63.0693 988.131 64.8597 986.731 67.1709C985.348 69.4658 984.656 71.9886 984.656 74.7393C984.656 77.3923 985.324 79.8743 986.658 82.1855C987.977 84.4967 989.775 86.3197 992.054 87.6543C994.349 88.9889 996.831 89.6562 999.5 89.6562C1002.17 89.6562 1004.66 88.9889 1006.97 87.6543C1009.28 86.3197 1011.1 84.4967 1012.42 82.1855C1013.75 79.8743 1014.42 77.3923 1014.42 74.7393ZM996.399 77.1074V84.749H992.054V64.8516H1000.11C1002.6 64.8516 1004.46 65.3805 1005.7 66.4385C1006.94 67.4801 1007.56 68.9206 1007.56 70.7598C1007.56 72.2897 1007.17 73.5348 1006.38 74.4951C1005.6 75.4554 1004.58 76.139 1003.31 76.5459L1008.51 84.749H1003.6L999.256 77.1074H996.399ZM1003.16 70.8086C1003.16 69.8809 1002.85 69.1729 1002.23 68.6846C1001.63 68.1963 1000.77 67.9521 999.646 67.9521H996.399V73.958H999.915C1000.99 73.958 1001.79 73.6732 1002.33 73.1035C1002.89 72.5176 1003.16 71.7526 1003.16 70.8086Z" fill="#035094"/>
</svg>
