<svg width="583" height="560" viewBox="0 0 583 560" fill="none" xmlns="http://www.w3.org/2000/svg">
<path d="M279.775 8.1748C380.189 8.17494 462.355 94.3659 462.355 201.656C462.355 308.946 380.189 395.137 279.775 395.137C179.361 395.137 97.1942 308.947 97.1941 201.656C97.1941 94.3658 179.361 8.1748 279.775 8.1748Z" stroke="#035094" stroke-width="16.3505"/>
<path d="M438.979 218.006C431.562 303.578 363.116 370.61 279.775 370.61C276.111 370.61 272.476 370.478 268.873 370.223L291.615 226.636L252.525 226.635L231.76 362.898C214.481 357.186 198.467 348.475 184.272 337.343L185.275 337.524L203.889 218.006H438.979ZM431.258 148.704C434.473 158.699 436.815 169.116 438.196 179.855H173.497L152.557 304.348C132.071 276.1 119.904 240.826 119.904 202.565C119.904 185.167 122.418 168.387 127.087 152.605H265.799L263.424 170.772H302.36L304.735 152.605H432.379C432.379 152.605 431.942 151.019 431.258 148.704ZM279.775 34.5177C340.323 34.5177 393.009 69.8994 420.143 122.066C419.101 120.202 418.39 118.995 418.39 118.995L141.53 118.113C169.23 68.1206 220.768 34.5178 279.775 34.5177Z" fill="#035094"/>
<path d="M70.8525 459.63H41.7842V541.383H29.0674V459.63H0V446.913H70.8525V459.63Z" fill="#035094"/>
<path d="M151.035 465.08C154.176 465.08 157.095 466.704 158.752 469.372L171.525 489.94L184.299 469.372C185.956 466.704 188.874 465.08 192.015 465.08H204.072L179.665 503.046L203.472 541.382L192.99 541.383C189.899 541.383 187.02 539.811 185.348 537.211L171.525 515.708L157.702 537.211C156.031 539.811 153.152 541.383 150.061 541.383L139.578 541.382L163.385 503.046L138.978 465.08H151.035Z" fill="#035094"/>
<path d="M116.27 465.08C126.303 465.08 134.437 473.214 134.437 483.247V510.498H90.8364V521.399C90.8364 525.412 94.0896 528.665 98.103 528.665H134.437V541.383H92.6528V541.292C83.4724 540.381 76.3022 532.635 76.3022 523.215V483.247C76.3024 473.214 84.4359 465.08 94.4692 465.08H116.27ZM99.9194 479.615C94.9028 479.615 90.8365 483.681 90.8364 488.698V497.782H121.72V488.698C121.72 483.681 117.653 479.615 112.636 479.615H99.9194Z" fill="#035094"/>
<path d="M216.189 466.897C219.199 466.897 221.64 469.337 221.64 472.347V497.781H254.341V472.347C254.341 469.337 256.781 466.897 259.791 466.897H267.058V541.382H259.791C256.781 541.382 254.341 538.942 254.341 535.932V510.499H221.64V535.932C221.64 538.942 219.199 541.382 216.189 541.382H208.923V466.897H216.189Z" fill="#035094"/>
<path d="M317.926 465.08C327.959 465.08 336.094 473.214 336.094 483.247V523.215C336.094 533.249 327.959 541.383 317.926 541.383H294.309C284.275 541.383 276.142 533.249 276.142 523.215V483.247C276.142 473.214 284.275 465.08 294.309 465.08H317.926ZM299.759 477.797C293.739 477.797 288.858 482.678 288.858 488.698V517.765C288.858 523.785 293.739 528.665 299.759 528.665H312.476C318.496 528.665 323.376 523.785 323.376 517.765V488.698C323.376 482.678 318.496 477.797 312.476 477.797H299.759Z" fill="#035094"/>
<path d="M410.579 446.913V454.18C410.579 457.19 408.138 459.63 405.128 459.63H359.71V535.933C359.71 538.943 357.27 541.383 354.26 541.383H346.994V446.913H410.579Z" fill="#035094"/>
<path d="M423.295 465.08C426.305 465.08 428.746 467.521 428.746 470.531V517.492L461.447 465.989V465.08H474.164V541.383H466.897C463.887 541.383 461.447 538.943 461.447 535.933V487.016L428.746 538.522V541.383H416.029V465.08H423.295Z" fill="#035094"/>
<path d="M528.984 465.964L550.939 526.849H565V559.55H559.55C555.536 559.55 552.283 556.296 552.283 552.283V539.566H492.331V552.283C492.331 556.296 489.078 559.55 485.064 559.55H479.614V526.849H494.297L516.251 465.965L515.948 465.08H529.288L528.984 465.964ZM508.111 526.849H537.126L522.618 484.534L508.111 526.849Z" fill="#035094"/>
<path d="M582.151 447.739C582.151 450.881 581.37 453.818 579.808 456.553C578.229 459.303 576.064 461.468 573.313 463.047C570.579 464.609 567.641 465.391 564.5 465.391C561.31 465.391 558.331 464.569 555.564 462.925C552.814 461.281 550.674 459.108 549.144 456.406C547.614 453.704 546.849 450.815 546.849 447.739C546.849 444.582 547.638 441.644 549.217 438.926C550.796 436.191 552.952 434.035 555.687 432.456C558.421 430.877 561.359 430.088 564.5 430.088C567.658 430.088 570.612 430.877 573.362 432.456C576.097 434.035 578.245 436.191 579.808 438.926C581.37 441.644 582.151 444.582 582.151 447.739ZM579.417 447.739C579.417 445.07 578.75 442.596 577.415 440.317C576.08 438.039 574.257 436.232 571.946 434.897C569.635 433.563 567.153 432.896 564.5 432.896C561.945 432.896 559.528 433.53 557.249 434.8C554.97 436.069 553.131 437.86 551.731 440.171C550.348 442.466 549.656 444.989 549.656 447.739C549.656 450.392 550.324 452.874 551.658 455.186C552.977 457.497 554.775 459.32 557.054 460.654C559.349 461.989 561.831 462.656 564.5 462.656C567.169 462.656 569.66 461.989 571.971 460.654C574.282 459.32 576.097 457.497 577.415 455.186C578.75 452.874 579.417 450.392 579.417 447.739ZM561.399 450.107V457.749H557.054V437.852H565.11C567.601 437.852 569.464 438.381 570.701 439.438C571.938 440.48 572.557 441.921 572.557 443.76C572.557 445.29 572.166 446.535 571.385 447.495C570.604 448.455 569.578 449.139 568.309 449.546L573.509 457.749H568.602L564.256 450.107H561.399ZM568.162 443.809C568.162 442.881 567.853 442.173 567.234 441.685C566.632 441.196 565.77 440.952 564.646 440.952H561.399V446.958H564.915C565.989 446.958 566.795 446.673 567.332 446.104C567.885 445.518 568.162 444.753 568.162 443.809Z" fill="#035094"/>
</svg>
